<svg width="109" height="40" viewBox="0 0 109 40" fill="none" xmlns="http://www.w3.org/2000/svg">
<g filter="url(#filter0_d)">
<rect x="4.99999" y="8.76135" width="26.0795" height="18.5625" rx="4.60227" fill="white"/>
<rect x="5.76704" y="9.5284" width="24.5455" height="17.0284" rx="3.83523" stroke="#CC4040" stroke-width="1.53409"/>
</g>
<g filter="url(#filter1_d)">
<rect x="11.4432" y="14.4375" width="27.9205" height="18.5625" rx="4.60227" fill="white"/>
<rect x="12.2102" y="15.2046" width="26.3864" height="17.0284" rx="3.83523" stroke="black" stroke-width="1.53409"/>
</g>
<path d="M51.3871 16.4548C51.3535 17.1835 51.157 17.8283 50.7974 18.3892C50.4379 18.9453 49.9321 19.3768 49.2801 19.6836C48.6329 19.9904 47.8922 20.1438 47.0581 20.1438C45.6822 20.1438 44.5987 19.6956 43.8077 18.7991C43.0167 17.9026 42.6212 16.637 42.6212 15.0022V14.4845C42.6212 13.4585 42.7986 12.5621 43.1533 11.795C43.5129 11.0232 44.0282 10.4287 44.6994 10.0116C45.3706 9.58976 46.1472 9.37882 47.0293 9.37882C48.2997 9.37882 49.3208 9.7144 50.0927 10.3856C50.8645 11.0519 51.3032 11.9724 51.4086 13.1469H48.8918C48.8726 12.5093 48.712 12.0515 48.41 11.7734C48.108 11.4954 47.6477 11.3564 47.0293 11.3564C46.4013 11.3564 45.941 11.5913 45.6486 12.0611C45.3562 12.5309 45.2028 13.2812 45.1884 14.3119V15.0526C45.1884 16.1696 45.3274 16.9678 45.6055 17.4472C45.8883 17.9266 46.3725 18.1663 47.0581 18.1663C47.6381 18.1663 48.0816 18.0297 48.3884 17.7564C48.6952 17.4831 48.8582 17.0493 48.8774 16.4548H51.3871ZM55.0257 20H52.5952V8.95455H55.0257V20ZM56.2195 16.0377C56.2195 15.2611 56.3705 14.5708 56.6725 13.9667C56.9745 13.3579 57.4084 12.8904 57.9741 12.5645C58.5398 12.2385 59.2037 12.0755 59.966 12.0755C61.1309 12.0755 62.049 12.4374 62.7202 13.1613C63.3913 13.8804 63.7269 14.8608 63.7269 16.1025V16.1887C63.7269 17.4016 63.3889 18.3652 62.713 19.0795C62.0418 19.7891 61.1309 20.1438 59.9804 20.1438C58.873 20.1438 57.9837 19.813 57.3125 19.1515C56.6413 18.4851 56.2794 17.5838 56.2266 16.4476L56.2195 16.0377ZM58.6428 16.1887C58.6428 16.9078 58.7555 17.4352 58.9808 17.7708C59.2061 18.1064 59.5393 18.2741 59.9804 18.2741C60.8433 18.2741 61.2844 17.6102 61.3035 16.2822V16.0377C61.3035 14.6427 60.8577 13.9451 59.966 13.9451C59.1558 13.9451 58.7171 14.5468 58.65 15.7501L58.6428 16.1887ZM68.8685 17.8139C68.8685 17.6078 68.7606 17.4424 68.5449 17.3177C68.3292 17.1931 67.9193 17.0637 67.3152 16.9294C66.7112 16.7952 66.2126 16.6202 65.8195 16.4045C65.4264 16.184 65.1268 15.9179 64.9206 15.6063C64.7145 15.2947 64.6114 14.9375 64.6114 14.5348C64.6114 13.8205 64.9062 13.2332 65.4959 12.773C66.0856 12.308 66.8574 12.0755 67.8114 12.0755C68.8374 12.0755 69.6619 12.308 70.2851 12.773C70.9084 13.238 71.22 13.8493 71.22 14.6067H68.7894C68.7894 13.9835 68.461 13.6719 67.8042 13.6719C67.5502 13.6719 67.3368 13.7438 67.1642 13.8876C66.9916 14.0266 66.9054 14.2016 66.9054 14.4126C66.9054 14.6283 67.0108 14.8033 67.2218 14.9375C67.4327 15.0717 67.7683 15.182 68.2285 15.2683C68.6935 15.3546 69.101 15.4577 69.451 15.5775C70.6207 15.9802 71.2056 16.7017 71.2056 17.742C71.2056 18.4515 70.8892 19.0292 70.2564 19.4751C69.6284 19.9209 68.8134 20.1438 67.8114 20.1438C67.1451 20.1438 66.5506 20.024 66.028 19.7843C65.5055 19.5446 65.098 19.2186 64.8056 18.8063C64.5131 18.394 64.3669 17.9601 64.3669 17.5047H66.6321C66.6417 17.8643 66.7615 18.1279 66.9916 18.2957C67.2218 18.4587 67.5166 18.5402 67.8761 18.5402C68.2069 18.5402 68.4538 18.4731 68.6168 18.3389C68.7846 18.2046 68.8685 18.0297 68.8685 17.8139ZM76.1099 20.1438C74.9162 20.1438 73.9502 19.7891 73.2119 19.0795C72.4736 18.3652 72.1045 17.4376 72.1045 16.2966V16.0953C72.1045 15.2995 72.2507 14.5971 72.5431 13.9883C72.8404 13.3794 73.2718 12.9096 73.8375 12.5788C74.4032 12.2433 75.0744 12.0755 75.851 12.0755C76.9441 12.0755 77.807 12.4158 78.4398 13.0966C79.0726 13.7726 79.389 14.717 79.389 15.9299V16.8719H74.571C74.6573 17.3082 74.8467 17.6509 75.1391 17.9002C75.4315 18.1495 75.8103 18.2741 76.2753 18.2741C77.0423 18.2741 77.6416 18.0057 78.0731 17.4688L79.1805 18.7775C78.8785 19.1946 78.4494 19.5278 77.8933 19.7771C77.342 20.0216 76.7475 20.1438 76.1099 20.1438ZM75.8366 13.9451C75.1271 13.9451 74.7052 14.415 74.571 15.3546H77.016V15.1676C77.0256 14.7793 76.9273 14.4797 76.7211 14.2687C76.515 14.053 76.2202 13.9451 75.8366 13.9451ZM88.7014 11.4786H85.5589V20H83.0349V11.4786H79.9499V9.52983H88.7014V11.4786ZM92.8363 20C92.75 19.8418 92.6733 19.6093 92.6062 19.3025C92.1603 19.8634 91.5371 20.1438 90.7365 20.1438C90.003 20.1438 89.3798 19.9233 88.8668 19.4822C88.3539 19.0364 88.0974 18.4779 88.0974 17.8067C88.0974 16.963 88.409 16.3254 89.0322 15.8939C89.6554 15.4624 90.5615 15.2467 91.7504 15.2467H92.4983V14.8368C92.4983 14.1225 92.1891 13.7654 91.5707 13.7654C90.9954 13.7654 90.7077 14.0482 90.7077 14.6139H88.2843C88.2843 13.8612 88.6031 13.25 89.2408 12.7802C89.8832 12.3104 90.7005 12.0755 91.6929 12.0755C92.6853 12.0755 93.4691 12.3176 94.0444 12.8018C94.6197 13.286 94.9145 13.9499 94.9289 14.7937V18.2382C94.9385 18.9525 95.0487 19.499 95.2597 19.8778V20H92.8363ZM91.319 18.418C91.621 18.418 91.8703 18.3532 92.0668 18.2238C92.2682 18.0944 92.412 17.9482 92.4983 17.7852V16.5411H91.7936C90.9498 16.5411 90.528 16.9198 90.528 17.6773C90.528 17.8978 90.6023 18.0776 90.7509 18.2166C90.8995 18.3509 91.0889 18.418 91.319 18.418ZM103.501 16.1744C103.501 17.4496 103.237 18.43 102.71 19.1155C102.182 19.801 101.439 20.1438 100.48 20.1438C99.6893 20.1438 99.0517 19.8298 98.5675 19.2018L98.4669 20H96.2952V8.95455H98.7186V12.8449C99.1692 12.3319 99.7517 12.0755 100.466 12.0755C101.434 12.0755 102.182 12.423 102.71 13.1182C103.237 13.8133 103.501 14.7913 103.501 16.0521V16.1744ZM101.07 16.0233C101.07 15.2755 100.969 14.7433 100.768 14.4269C100.571 14.1057 100.267 13.9451 99.8547 13.9451C99.3082 13.9451 98.9295 14.1537 98.7186 14.5708V17.6629C98.9247 18.0752 99.3082 18.2813 99.8691 18.2813C100.44 18.2813 100.802 18.0033 100.955 17.4472C101.032 17.1739 101.07 16.6993 101.07 16.0233Z" fill="black"/>
<path d="M51.3871 16.4548L51.5403 16.4619L51.5477 16.3014H51.3871V16.4548ZM50.7974 18.3892L50.9262 18.4725L50.9266 18.472L50.7974 18.3892ZM49.2801 19.6836L49.2148 19.5448L49.2144 19.545L49.2801 19.6836ZM43.1533 11.795L43.0143 11.7302L43.0141 11.7306L43.1533 11.795ZM44.6994 10.0116L44.7804 10.1419L44.781 10.1415L44.6994 10.0116ZM50.0927 10.3856L49.992 10.5013L49.9924 10.5017L50.0927 10.3856ZM51.4086 13.1469V13.3003H51.5764L51.5614 13.1332L51.4086 13.1469ZM48.8918 13.1469L48.7384 13.1515L48.7429 13.3003H48.8918V13.1469ZM45.1884 14.3119L45.035 14.3097V14.3119H45.1884ZM45.6055 17.4472L45.4728 17.5241L45.4733 17.5251L45.6055 17.4472ZM48.8774 16.4548V16.3014H48.7289L48.7241 16.4499L48.8774 16.4548ZM51.2338 16.4478C51.2014 17.1522 51.0119 17.7703 50.6683 18.3064L50.9266 18.472C51.302 17.8863 51.5056 17.2149 51.5403 16.4619L51.2338 16.4478ZM50.6686 18.3059C50.326 18.8358 49.8432 19.2491 49.2148 19.5448L49.3454 19.8224C50.021 19.5045 50.5497 19.0548 50.9262 18.4725L50.6686 18.3059ZM49.2144 19.545C48.5908 19.8406 47.8732 19.9904 47.0581 19.9904V20.2972C47.9112 20.2972 48.675 20.1402 49.3458 19.8222L49.2144 19.545ZM47.0581 19.9904C45.7188 19.9904 44.6801 19.5559 43.9227 18.6976L43.6927 18.9006C44.5173 19.8352 45.6455 20.2972 47.0581 20.2972V19.9904ZM43.9227 18.6976C43.1643 17.838 42.7746 16.6134 42.7746 15.0022H42.4678C42.4678 16.6606 42.8691 17.9672 43.6927 18.9006L43.9227 18.6976ZM42.7746 15.0022V14.4845H42.4678V15.0022H42.7746ZM42.7746 14.4845C42.7746 13.4761 42.9489 12.6024 43.2926 11.8594L43.0141 11.7306C42.6482 12.5217 42.4678 13.441 42.4678 14.4845H42.7746ZM43.2924 11.8598C43.6404 11.1128 44.1365 10.5421 44.7804 10.1419L44.6184 9.88133C43.92 10.3154 43.3854 10.9336 43.0143 11.7302L43.2924 11.8598ZM44.781 10.1415C45.425 9.73671 46.1727 9.53223 47.0293 9.53223V9.22541C46.1217 9.22541 45.3161 9.44281 44.6178 9.88175L44.781 10.1415ZM47.0293 9.53223C48.272 9.53223 49.2544 9.85991 49.992 10.5013L50.1933 10.2698C49.3873 9.56889 48.3274 9.22541 47.0293 9.22541V9.53223ZM49.9924 10.5017C50.7294 11.138 51.1533 12.0191 51.2558 13.1607L51.5614 13.1332C51.453 11.9257 50.9996 10.9659 50.1929 10.2694L49.9924 10.5017ZM51.4086 12.9935H48.8918V13.3003H51.4086V12.9935ZM49.0451 13.1423C49.0254 12.4858 48.8595 11.9788 48.5139 11.6606L48.3061 11.8863C48.5645 12.1242 48.7198 12.5329 48.7384 13.1515L49.0451 13.1423ZM48.5139 11.6606C48.1721 11.3459 47.6672 11.203 47.0293 11.203V11.5098C47.6282 11.5098 48.0438 11.6448 48.3061 11.8863L48.5139 11.6606ZM47.0293 11.203C46.3567 11.203 45.843 11.4585 45.5184 11.98L45.7789 12.1421C46.0391 11.7241 46.4458 11.5098 47.0293 11.5098V11.203ZM45.5184 11.98C45.2032 12.4863 45.0495 13.2715 45.035 14.3097L45.3418 14.314C45.3561 13.2908 45.5091 12.5755 45.7789 12.1421L45.5184 11.98ZM45.035 14.3119V15.0526H45.3418V14.3119H45.035ZM45.035 15.0526C45.035 16.1743 45.1732 17.0076 45.4728 17.5241L45.7382 17.3702C45.4817 16.9279 45.3418 16.1649 45.3418 15.0526H45.035ZM45.4733 17.5251C45.7905 18.0627 46.3329 18.3197 47.0581 18.3197V18.0129C46.4121 18.0129 45.9861 17.7905 45.7376 17.3692L45.4733 17.5251ZM47.0581 18.3197C47.6603 18.3197 48.1458 18.1779 48.4904 17.871L48.2864 17.6418C48.0174 17.8814 47.6159 18.0129 47.0581 18.0129V18.3197ZM48.4904 17.871C48.8405 17.5592 49.0108 17.0772 49.0307 16.4598L48.7241 16.4499C48.7056 17.0213 48.55 17.4071 48.2864 17.6418L48.4904 17.871ZM48.8774 16.6082H51.3871V16.3014H48.8774V16.6082ZM55.0257 20V20.1534H55.1792V20H55.0257ZM52.5952 20H52.4418V20.1534H52.5952V20ZM52.5952 8.95455V8.80114H52.4418V8.95455H52.5952ZM55.0257 8.95455H55.1792V8.80114H55.0257V8.95455ZM55.0257 19.8466H52.5952V20.1534H55.0257V19.8466ZM52.7486 20V8.95455H52.4418V20H52.7486ZM52.5952 9.10796H55.0257V8.80114H52.5952V9.10796ZM54.8723 8.95455V20H55.1792V8.95455H54.8723ZM56.2195 16.0377H56.066L56.0661 16.0404L56.2195 16.0377ZM56.6725 13.9667L56.8097 14.0353L56.8099 14.0349L56.6725 13.9667ZM57.9741 12.5645L57.8975 12.4315L57.9741 12.5645ZM62.7202 13.1613L62.6077 13.2656L62.608 13.266L62.7202 13.1613ZM62.713 19.0795L62.6015 18.9741L62.6015 18.9741L62.713 19.0795ZM57.3125 19.1515L57.2044 19.2603L57.2048 19.2607L57.3125 19.1515ZM56.2266 16.4476L56.0732 16.4503L56.0734 16.4547L56.2266 16.4476ZM58.6428 16.1887L58.4894 16.1862V16.1887H58.6428ZM61.3035 16.2822L61.4569 16.2844V16.2822H61.3035ZM58.65 15.7501L58.4967 15.7415L58.4966 15.7476L58.65 15.7501ZM56.3729 16.0377C56.3729 15.2813 56.5198 14.6151 56.8097 14.0353L56.5353 13.8981C56.2211 14.5264 56.066 15.2409 56.066 16.0377H56.3729ZM56.8099 14.0349C57.0991 13.452 57.5123 13.0076 58.0507 12.6974L57.8975 12.4315C57.3044 12.7733 56.85 13.2638 56.5351 13.8985L56.8099 14.0349ZM58.0507 12.6974C58.5894 12.3869 59.2261 12.2289 59.966 12.2289V11.9221C59.1814 11.9221 58.4901 12.09 57.8975 12.4315L58.0507 12.6974ZM59.966 12.2289C61.0966 12.2289 61.9708 12.5787 62.6077 13.2656L62.8327 13.057C62.1272 12.2961 61.1653 11.9221 59.966 11.9221V12.2289ZM62.608 13.266C63.2462 13.9498 63.5735 14.889 63.5735 16.1025H63.8803C63.8803 14.8326 63.5364 13.8111 62.8323 13.0566L62.608 13.266ZM63.5735 16.1025V16.1887H63.8803V16.1025H63.5735ZM63.5735 16.1887C63.5735 17.372 63.2446 18.2946 62.6015 18.9741L62.8244 19.185C63.5333 18.4359 63.8803 17.4312 63.8803 16.1887H63.5735ZM62.6015 18.9741C61.9645 19.6475 61.0969 19.9904 59.9804 19.9904V20.2972C61.165 20.2972 62.1191 19.9306 62.8244 19.185L62.6015 18.9741ZM59.9804 19.9904C58.9057 19.9904 58.0577 19.6706 57.4202 19.0422L57.2048 19.2607C57.9097 19.9555 58.8402 20.2972 59.9804 20.2972V19.9904ZM57.4206 19.0426C56.782 18.4086 56.4312 17.5465 56.3799 16.4405L56.0734 16.4547C56.1275 17.6211 56.5007 18.5616 57.2044 19.2603L57.4206 19.0426ZM56.38 16.4449L56.3728 16.035L56.0661 16.0404L56.0733 16.4503L56.38 16.4449ZM58.4894 16.1887C58.4894 16.9176 58.6024 17.4824 58.8535 17.8563L59.1082 17.6853C58.9086 17.388 58.7962 16.8981 58.7962 16.1887H58.4894ZM58.8535 17.8563C59.1102 18.2387 59.4937 18.4276 59.9804 18.4276V18.1207C59.5849 18.1207 59.3021 17.974 59.1082 17.6853L58.8535 17.8563ZM59.9804 18.4276C60.4582 18.4276 60.8345 18.2399 61.0861 17.8611C61.3305 17.4931 61.4472 16.9603 61.4569 16.2844L61.1501 16.28C61.1407 16.9321 61.0272 17.3952 60.8306 17.6913C60.6412 17.9764 60.3655 18.1207 59.9804 18.1207V18.4276ZM61.4569 16.2822V16.0377H61.1501V16.2822H61.4569ZM61.4569 16.0377C61.4569 15.3288 61.3445 14.7708 61.0984 14.3857C60.8448 13.9889 60.4594 13.7917 59.966 13.7917V14.0985C60.3643 14.0985 60.6477 14.2502 60.8399 14.5509C61.0396 14.8633 61.1501 15.3516 61.1501 16.0377H61.4569ZM59.966 13.7917C59.5169 13.7917 59.1564 13.9617 58.9054 14.306C58.6609 14.6413 58.5311 15.1269 58.4969 15.7415L58.8032 15.7586C58.836 15.1699 58.9591 14.7531 59.1533 14.4868C59.3409 14.2294 59.6049 14.0985 59.966 14.0985V13.7917ZM58.4966 15.7476L58.4895 16.1862L58.7962 16.1913L58.8034 15.7526L58.4966 15.7476ZM65.8195 16.4045L65.7444 16.5383L65.7457 16.539L65.8195 16.4045ZM65.4959 12.773L65.5903 12.8939L65.5909 12.8935L65.4959 12.773ZM70.2851 12.773L70.1934 12.8959L70.2851 12.773ZM71.22 14.6067V14.7601H71.3734V14.6067H71.22ZM68.7894 14.6067H68.636V14.7601H68.7894V14.6067ZM67.1642 13.8876L67.2605 14.0071L67.2624 14.0055L67.1642 13.8876ZM68.2285 15.2683L68.2002 15.4191L68.2005 15.4191L68.2285 15.2683ZM69.451 15.5775L69.5009 15.4325L69.5007 15.4324L69.451 15.5775ZM70.2564 19.4751L70.168 19.3496L70.1676 19.35L70.2564 19.4751ZM64.3669 17.5047V17.3513H64.2135V17.5047H64.3669ZM66.6321 17.5047L66.7855 17.5006L66.7815 17.3513H66.6321V17.5047ZM66.9916 18.2957L66.9013 18.4197L66.903 18.4209L66.9916 18.2957ZM68.6168 18.3389L68.521 18.2191L68.5193 18.2204L68.6168 18.3389ZM69.0219 17.8139C69.0219 17.5407 68.8732 17.3302 68.6217 17.1849L68.4682 17.4506C68.6481 17.5545 68.7151 17.6748 68.7151 17.8139H69.0219ZM68.6217 17.1849C68.3832 17.0471 67.9518 16.9137 67.3485 16.7797L67.282 17.0792C67.8868 17.2136 68.2752 17.3391 68.4682 17.4506L68.6217 17.1849ZM67.3485 16.7797C66.7537 16.6475 66.2699 16.4767 65.8933 16.27L65.7457 16.539C66.1553 16.7638 66.6687 16.9429 67.282 17.0792L67.3485 16.7797ZM65.8946 16.2707C65.5184 16.0597 65.2387 15.8091 65.0486 15.5216L64.7927 15.6909C65.0148 16.0267 65.3344 16.3082 65.7445 16.5383L65.8946 16.2707ZM65.0486 15.5216C64.8603 15.2371 64.7648 14.9099 64.7648 14.5348H64.458C64.458 14.9652 64.5686 15.3522 64.7927 15.6909L65.0486 15.5216ZM64.7648 14.5348C64.7648 13.8703 65.0358 13.3267 65.5903 12.8939L65.4015 12.6521C64.7766 13.1398 64.458 13.7707 64.458 14.5348H64.7648ZM65.5909 12.8935C66.1469 12.455 66.8824 12.2289 67.8114 12.2289V11.9221C66.8324 11.9221 66.0242 12.161 65.4009 12.6525L65.5909 12.8935ZM67.8114 12.2289C68.8148 12.2289 69.604 12.4562 70.1934 12.8959L70.3769 12.65C69.7198 12.1598 68.8599 11.9221 67.8114 11.9221V12.2289ZM70.1934 12.8959C70.779 13.3329 71.0666 13.8992 71.0666 14.6067H71.3734C71.3734 13.7993 71.0377 13.1431 70.3769 12.65L70.1934 12.8959ZM71.22 14.4533H68.7894V14.7601H71.22V14.4533ZM68.9428 14.6067C68.9428 14.2693 68.8535 13.9887 68.6487 13.7943C68.4454 13.6014 68.1543 13.5185 67.8042 13.5185V13.8253C68.1109 13.8253 68.3124 13.8982 68.4375 14.0169C68.5611 14.1341 68.636 14.3209 68.636 14.6067H68.9428ZM67.8042 13.5185C67.5193 13.5185 67.2698 13.6 67.066 13.7698L67.2624 14.0055C67.4039 13.8876 67.5811 13.8253 67.8042 13.8253V13.5185ZM67.068 13.7681C66.8614 13.9346 66.7519 14.1526 66.7519 14.4126H67.0588C67.0588 14.2507 67.1219 14.1187 67.2605 14.0071L67.068 13.7681ZM66.7519 14.4126C66.7519 14.6898 66.8925 14.9098 67.1394 15.0669L67.3041 14.8081C67.1292 14.6968 67.0588 14.5668 67.0588 14.4126H66.7519ZM67.1394 15.0669C67.3756 15.2172 67.7346 15.3318 68.2002 15.4191L68.2568 15.1175C67.802 15.0322 67.4898 14.9263 67.3041 14.8081L67.1394 15.0669ZM68.2005 15.4191C68.6601 15.5044 69.06 15.6058 69.4013 15.7226L69.5007 15.4324C69.142 15.3095 68.727 15.2048 68.2565 15.1175L68.2005 15.4191ZM69.4011 15.7226C69.9675 15.9176 70.3785 16.1851 70.6478 16.5173C70.9154 16.8474 71.0522 17.2526 71.0522 17.742H71.359C71.359 17.1912 71.2034 16.7154 70.8861 16.3241C70.5705 15.9347 70.1042 15.6401 69.5009 15.4325L69.4011 15.7226ZM71.0522 17.742C71.0522 18.3965 70.7644 18.9295 70.168 19.3496L70.3447 19.6005C71.014 19.1289 71.359 18.5065 71.359 17.742H71.0522ZM70.1676 19.35C69.5723 19.7725 68.7911 19.9904 67.8114 19.9904V20.2972C68.8357 20.2972 69.6844 20.0693 70.3452 19.6001L70.1676 19.35ZM67.8114 19.9904C67.1636 19.9904 66.5915 19.874 66.092 19.6448L65.9641 19.9237C66.5097 20.174 67.1265 20.2972 67.8114 20.2972V19.9904ZM66.092 19.6448C65.5905 19.4148 65.2055 19.105 64.9307 18.7175L64.6804 18.895C64.9905 19.3322 65.4205 19.6743 65.9641 19.9237L66.092 19.6448ZM64.9307 18.7175C64.6545 18.3282 64.5203 17.9249 64.5203 17.5047H64.2135C64.2135 17.9954 64.3717 18.4598 64.6804 18.895L64.9307 18.7175ZM64.3669 17.6581H66.6321V17.3513H64.3669V17.6581ZM66.4787 17.5088C66.4892 17.9022 66.6228 18.2166 66.9013 18.4197L67.082 18.1718C66.9003 18.0392 66.7941 17.8264 66.7855 17.5006L66.4787 17.5088ZM66.903 18.4209C67.1653 18.6067 67.4936 18.6936 67.8761 18.6936V18.3868C67.5396 18.3868 67.2782 18.3107 67.0803 18.1705L66.903 18.4209ZM67.8761 18.6936C68.2235 18.6936 68.5121 18.6238 68.7143 18.4573L68.5193 18.2204C68.3956 18.3224 68.1904 18.3868 67.8761 18.3868V18.6936ZM68.7127 18.4587C68.917 18.2952 69.0219 18.076 69.0219 17.8139H68.7151C68.7151 17.9833 68.6522 18.1141 68.521 18.2191L68.7127 18.4587ZM73.2119 19.0795L73.1052 19.1898L73.1056 19.1902L73.2119 19.0795ZM72.5431 13.9883L72.4053 13.921L72.4049 13.9219L72.5431 13.9883ZM73.8375 12.5788L73.915 12.7113L73.9158 12.7108L73.8375 12.5788ZM78.4398 13.0966L78.3274 13.201L78.3278 13.2014L78.4398 13.0966ZM79.389 16.8719V17.0253H79.5424V16.8719H79.389ZM74.571 16.8719V16.7185H74.3843L74.4205 16.9017L74.571 16.8719ZM75.1391 17.9002L75.2386 17.7835L75.1391 17.9002ZM78.0731 17.4688L78.1902 17.3697L78.07 17.2276L77.9535 17.3727L78.0731 17.4688ZM79.1805 18.7775L79.3047 18.8675L79.3752 18.7702L79.2976 18.6784L79.1805 18.7775ZM77.8933 19.7771L77.9555 19.9173L77.956 19.9171L77.8933 19.7771ZM74.571 15.3546L74.4191 15.3329L74.3941 15.508H74.571V15.3546ZM77.016 15.3546V15.508H77.1694V15.3546H77.016ZM77.016 15.1676L76.8626 15.1638V15.1676H77.016ZM76.7211 14.2687L76.6102 14.3747L76.6114 14.376L76.7211 14.2687ZM76.1099 19.9904C74.9488 19.9904 74.0232 19.6465 73.3182 18.9689L73.1056 19.1902C73.8772 19.9317 74.8836 20.2972 76.1099 20.2972V19.9904ZM73.3186 18.9693C72.6136 18.2872 72.2579 17.4011 72.2579 16.2966H71.9511C71.9511 17.4741 72.3336 18.4432 73.1052 19.1898L73.3186 18.9693ZM72.2579 16.2966V16.0953H71.9511V16.2966H72.2579ZM72.2579 16.0953C72.2579 15.3184 72.4006 14.6394 72.6814 14.0547L72.4049 13.9219C72.1008 14.5548 71.9511 15.2805 71.9511 16.0953H72.2579ZM72.681 14.0556C72.9654 13.473 73.3763 13.0262 73.915 12.7113L73.7601 12.4464C73.1673 12.793 72.7153 13.2859 72.4053 13.921L72.681 14.0556ZM73.9158 12.7108C74.4538 12.3916 75.0969 12.2289 75.851 12.2289V11.9221C75.0519 11.9221 74.3526 12.0949 73.7593 12.4469L73.9158 12.7108ZM75.851 12.2289C76.9096 12.2289 77.7288 12.557 78.3274 13.201L78.5522 12.9921C77.8852 12.2746 76.9785 11.9221 75.851 11.9221V12.2289ZM78.3278 13.2014C78.9266 13.841 79.2356 14.7435 79.2356 15.9299H79.5424C79.5424 14.6905 79.2186 13.7041 78.5518 12.9917L78.3278 13.2014ZM79.2356 15.9299V16.8719H79.5424V15.9299H79.2356ZM79.389 16.7185H74.571V17.0253H79.389V16.7185ZM74.4205 16.9017C74.5124 17.3662 74.7168 17.7418 75.0396 18.017L75.2386 17.7835C74.9765 17.56 74.8022 17.2501 74.7215 16.8421L74.4205 16.9017ZM75.0396 18.017C75.3653 18.2946 75.7818 18.4276 76.2753 18.4276V18.1207C75.8388 18.1207 75.4978 18.0044 75.2386 17.7835L75.0396 18.017ZM76.2753 18.4276C77.0828 18.4276 77.7285 18.1424 78.1926 17.5648L77.9535 17.3727C77.5547 17.8689 77.0018 18.1207 76.2753 18.1207V18.4276ZM77.9559 17.5678L79.0634 18.8766L79.2976 18.6784L78.1902 17.3697L77.9559 17.5678ZM79.0562 18.6875C78.7726 19.0792 78.3666 19.3968 77.8305 19.6371L77.956 19.9171C78.5321 19.6588 78.9843 19.31 79.3047 18.8675L79.0562 18.6875ZM77.8311 19.6368C77.3005 19.8722 76.7273 19.9904 76.1099 19.9904V20.2972C76.7677 20.2972 77.3835 20.171 77.9555 19.9173L77.8311 19.6368ZM75.8366 13.7917C75.4443 13.7917 75.1178 13.9235 74.874 14.195C74.6349 14.4612 74.4885 14.8472 74.4191 15.3329L74.7229 15.3763C74.7877 14.9223 74.9194 14.6036 75.1022 14.4C75.2803 14.2017 75.5194 14.0985 75.8366 14.0985V13.7917ZM74.571 15.508H77.016V15.2012H74.571V15.508ZM77.1694 15.3546V15.1676H76.8626V15.3546H77.1694ZM77.1693 15.1714C77.1796 14.7554 77.0743 14.4106 76.8309 14.1615L76.6114 14.376C76.7803 14.5488 76.8715 14.8032 76.8626 15.1638L77.1693 15.1714ZM76.8321 14.1628C76.5893 13.9087 76.2495 13.7917 75.8366 13.7917V14.0985C76.1909 14.0985 76.4407 14.1973 76.6102 14.3747L76.8321 14.1628ZM88.7014 11.4786V11.632H88.8548V11.4786H88.7014ZM85.5589 11.4786V11.3252H85.4055V11.4786H85.5589ZM85.5589 20V20.1534H85.7123V20H85.5589ZM83.0349 20H82.8815V20.1534H83.0349V20ZM83.0349 11.4786H83.1883V11.3252H83.0349V11.4786ZM79.9499 11.4786H79.7965V11.632H79.9499V11.4786ZM79.9499 9.52983V9.37642H79.7965V9.52983H79.9499ZM88.7014 9.52983H88.8548V9.37642H88.7014V9.52983ZM88.7014 11.3252H85.5589V11.632H88.7014V11.3252ZM85.4055 11.4786V20H85.7123V11.4786H85.4055ZM85.5589 19.8466H83.0349V20.1534H85.5589V19.8466ZM83.1883 20V11.4786H82.8815V20H83.1883ZM83.0349 11.3252H79.9499V11.632H83.0349V11.3252ZM80.1033 11.4786V9.52983H79.7965V11.4786H80.1033ZM79.9499 9.68324H88.7014V9.37642H79.9499V9.68324ZM88.548 9.52983V11.4786H88.8548V9.52983H88.548ZM92.8363 20L92.7016 20.0735L92.7452 20.1534H92.8363V20ZM92.6062 19.3025L92.756 19.2697L92.687 18.9542L92.4861 19.207L92.6062 19.3025ZM88.8668 19.4822L88.7662 19.598L88.7668 19.5986L88.8668 19.4822ZM89.0322 15.8939L88.9449 15.7678L89.0322 15.8939ZM92.4983 15.2467V15.4001H92.6517V15.2467H92.4983ZM90.7077 14.6139V14.7673H90.8611V14.6139H90.7077ZM88.2843 14.6139H88.1309V14.7673H88.2843V14.6139ZM89.2408 12.7802L89.1502 12.6564L89.1498 12.6567L89.2408 12.7802ZM94.0444 12.8018L94.1432 12.6844L94.0444 12.8018ZM94.9289 14.7937H95.0823L95.0823 14.7911L94.9289 14.7937ZM94.9289 18.2382H94.7755L94.7755 18.2403L94.9289 18.2382ZM95.2597 19.8778H95.4131V19.8379L95.3937 19.8031L95.2597 19.8778ZM95.2597 20V20.1534H95.4131V20H95.2597ZM92.0668 18.2238L91.9839 18.0948L91.9825 18.0957L92.0668 18.2238ZM92.4983 17.7852L92.6339 17.8569L92.6517 17.8233V17.7852H92.4983ZM92.4983 16.5411H92.6517V16.3877H92.4983V16.5411ZM90.7509 18.2166L90.6461 18.3287L90.648 18.3305L90.7509 18.2166ZM92.971 19.9265C92.8949 19.7872 92.822 19.5712 92.756 19.2697L92.4563 19.3353C92.5246 19.6474 92.605 19.8964 92.7016 20.0735L92.971 19.9265ZM92.4861 19.207C92.073 19.7267 91.4966 19.9904 90.7365 19.9904V20.2972C91.5776 20.2972 92.2476 20.0001 92.7263 19.3979L92.4861 19.207ZM90.7365 19.9904C90.0364 19.9904 89.4495 19.781 88.9668 19.3659L88.7668 19.5986C89.31 20.0656 89.9696 20.2972 90.7365 20.2972V19.9904ZM88.9675 19.3665C88.4875 18.9493 88.2508 18.4328 88.2508 17.8067H87.944C87.944 18.523 88.2202 19.1235 88.7662 19.598L88.9675 19.3665ZM88.2508 17.8067C88.2508 17.0067 88.5429 16.4193 89.1195 16.02L88.9449 15.7678C88.2751 16.2315 87.944 16.9193 87.944 17.8067H88.2508ZM89.1195 16.02C89.7063 15.6138 90.5763 15.4001 91.7504 15.4001V15.0933C90.5467 15.0933 89.6046 15.3111 88.9449 15.7678L89.1195 16.02ZM91.7504 15.4001H92.4983V15.0933H91.7504V15.4001ZM92.6517 15.2467V14.8368H92.3449V15.2467H92.6517ZM92.6517 14.8368C92.6517 14.461 92.5708 14.1505 92.3824 13.9328C92.1902 13.7109 91.9097 13.612 91.5707 13.612V13.9188C91.85 13.9188 92.0333 13.9984 92.1504 14.1336C92.2712 14.2731 92.3449 14.4983 92.3449 14.8368H92.6517ZM91.5707 13.612C91.26 13.612 90.9987 13.6883 90.8159 13.8681C90.6326 14.0484 90.5543 14.3068 90.5543 14.6139H90.8611C90.8611 14.3554 90.9267 14.1895 91.031 14.0869C91.1358 13.9838 91.306 13.9188 91.5707 13.9188V13.612ZM90.7077 14.4605H88.2843V14.7673H90.7077V14.4605ZM88.4378 14.6139C88.4378 13.9129 88.731 13.3464 89.3318 12.9037L89.1498 12.6567C88.4753 13.1536 88.1309 13.8096 88.1309 14.6139H88.4378ZM89.3313 12.904C89.9415 12.4577 90.725 12.2289 91.6929 12.2289V11.9221C90.6761 11.9221 89.8248 12.163 89.1502 12.6564L89.3313 12.904ZM91.6929 12.2289C92.6608 12.2289 93.4058 12.4648 93.9456 12.9191L94.1432 12.6844C93.5324 12.1704 92.7097 11.9221 91.6929 11.9221V12.2289ZM93.9456 12.9191C94.4826 13.3711 94.7618 13.9908 94.7755 14.7963L95.0823 14.7911C95.0672 13.909 94.7568 13.2008 94.1432 12.6844L93.9456 12.9191ZM94.7755 14.7937V18.2382H95.0823V14.7937H94.7755ZM94.7755 18.2403C94.7852 18.9654 94.8968 19.5415 95.1256 19.9524L95.3937 19.8031C95.2007 19.4566 95.0917 18.9396 95.0823 18.2361L94.7755 18.2403ZM95.1063 19.8778V20H95.4131V19.8778H95.1063ZM95.2597 19.8466H92.8363V20.1534H95.2597V19.8466ZM91.319 18.5714C91.6426 18.5714 91.9234 18.502 92.1512 18.3519L91.9825 18.0957C91.8172 18.2045 91.5994 18.2646 91.319 18.2646V18.5714ZM92.1498 18.3529C92.3669 18.2133 92.5321 18.0492 92.6339 17.8569L92.3627 17.7134C92.2919 17.8472 92.1695 17.9754 91.9839 18.0948L92.1498 18.3529ZM92.6517 17.7852V16.5411H92.3449V17.7852H92.6517ZM92.4983 16.3877H91.7936V16.6945H92.4983V16.3877ZM91.7936 16.3877C91.3519 16.3877 90.992 16.4865 90.7419 16.711C90.4886 16.9384 90.3745 17.2704 90.3745 17.6773H90.6814C90.6814 17.3267 90.7782 17.0907 90.9468 16.9393C91.1186 16.7851 91.3915 16.6945 91.7936 16.6945V16.3877ZM90.3745 17.6773C90.3745 17.9363 90.4637 18.158 90.6461 18.3287L90.8557 18.1046C90.7408 17.9972 90.6814 17.8593 90.6814 17.6773H90.3745ZM90.648 18.3305C90.829 18.4939 91.0569 18.5714 91.319 18.5714V18.2646C91.1208 18.2646 90.9699 18.2078 90.8537 18.1028L90.648 18.3305ZM102.71 19.1155L102.831 19.209L102.71 19.1155ZM98.5675 19.2018L98.689 19.1081L98.4619 18.8135L98.4153 19.1826L98.5675 19.2018ZM98.4669 20V20.1534H98.6021L98.6191 20.0192L98.4669 20ZM96.2952 20H96.1418V20.1534H96.2952V20ZM96.2952 8.95455V8.80114H96.1418V8.95455H96.2952ZM98.7186 8.95455H98.872V8.80114H98.7186V8.95455ZM98.7186 12.8449H98.5651V13.252L98.8338 12.9462L98.7186 12.8449ZM100.768 14.4269L100.637 14.507L100.639 14.5093L100.768 14.4269ZM98.7186 14.5708L98.5817 14.5015L98.5651 14.5342V14.5708H98.7186ZM98.7186 17.6629H98.5651V17.6991L98.5813 17.7315L98.7186 17.6629ZM100.955 17.4472L100.807 17.4057L100.807 17.4064L100.955 17.4472ZM103.347 16.1744C103.347 17.4311 103.087 18.3733 102.588 19.022L102.831 19.209C103.387 18.4866 103.654 17.468 103.654 16.1744H103.347ZM102.588 19.022C102.093 19.6653 101.397 19.9904 100.48 19.9904V20.2972C101.481 20.2972 102.271 19.9368 102.831 19.209L102.588 19.022ZM100.48 19.9904C99.7371 19.9904 99.1443 19.6986 98.689 19.1081L98.4461 19.2955C98.9592 19.961 99.6416 20.2972 100.48 20.2972V19.9904ZM98.4153 19.1826L98.3147 19.9808L98.6191 20.0192L98.7197 19.221L98.4153 19.1826ZM98.4669 19.8466H96.2952V20.1534H98.4669V19.8466ZM96.4486 20V8.95455H96.1418V20H96.4486ZM96.2952 9.10796H98.7186V8.80114H96.2952V9.10796ZM98.5651 8.95455V12.8449H98.872V8.95455H98.5651ZM98.8338 12.9462C99.2538 12.4681 99.7935 12.2289 100.466 12.2289V11.9221C99.7099 11.9221 99.0846 12.1958 98.6033 12.7437L98.8338 12.9462ZM100.466 12.2289C101.392 12.2289 102.093 12.5586 102.587 13.2109L102.832 13.0254C102.272 12.2875 101.476 11.9221 100.466 11.9221V12.2289ZM102.587 13.2109C103.087 13.8698 103.347 14.8104 103.347 16.0521H103.654C103.654 14.7722 103.387 13.7568 102.832 13.0254L102.587 13.2109ZM103.347 16.0521V16.1744H103.654V16.0521H103.347ZM101.223 16.0233C101.223 15.2702 101.124 14.7 100.897 14.3446L100.639 14.5093C100.815 14.7867 100.917 15.2808 100.917 16.0233H101.223ZM100.899 14.3469C100.671 13.9751 100.314 13.7917 99.8547 13.7917V14.0985C100.22 14.0985 100.472 14.2363 100.637 14.507L100.899 14.3469ZM99.8547 13.7917C99.5623 13.7917 99.3041 13.8475 99.0868 13.9672C98.8682 14.0875 98.6999 14.2678 98.5817 14.5015L98.8555 14.64C98.9482 14.4567 99.0747 14.3241 99.2348 14.2359C99.3963 14.147 99.6007 14.0985 99.8547 14.0985V13.7917ZM98.5651 14.5708V17.6629H98.872V14.5708H98.5651ZM98.5813 17.7315C98.6977 17.9642 98.8669 18.1429 99.0882 18.2619C99.3078 18.3799 99.5704 18.4347 99.8691 18.4347V18.1279C99.6069 18.1279 99.3974 18.0797 99.2334 17.9916C99.0712 17.9044 98.9456 17.7739 98.8558 17.5943L98.5813 17.7315ZM99.8691 18.4347C100.18 18.4347 100.448 18.3588 100.662 18.1945C100.876 18.0303 101.02 17.7896 101.103 17.488L100.807 17.4064C100.737 17.6609 100.623 17.8373 100.475 17.9511C100.327 18.0649 100.129 18.1279 99.8691 18.1279V18.4347ZM101.103 17.4886C101.186 17.193 101.223 16.6994 101.223 16.0233H100.917C100.917 16.6993 100.878 17.1548 100.807 17.4057L101.103 17.4886Z" fill="black"/>
<path d="M44.4417 28.5459C44.6335 28.5459 44.7929 28.6034 44.9199 28.7185C45.047 28.8311 45.1105 28.9761 45.1105 29.1535C45.1105 29.3309 45.047 29.4771 44.9199 29.5922C44.7929 29.7048 44.6335 29.7612 44.4417 29.7612C44.2476 29.7612 44.087 29.7036 43.9599 29.5886C43.8353 29.4735 43.7729 29.3285 43.7729 29.1535C43.7729 28.9785 43.8353 28.8335 43.9599 28.7185C44.087 28.6034 44.2476 28.5459 44.4417 28.5459ZM47.8035 29.7935C47.2067 29.7935 46.7237 29.6161 46.3545 29.2614C45.9854 28.9042 45.8008 28.4404 45.8008 27.8699V27.7692C45.8008 27.3713 45.8739 27.0202 46.0202 26.7158C46.1688 26.4113 46.3845 26.1764 46.6673 26.011C46.9502 25.8432 47.2858 25.7594 47.6741 25.7594C48.2206 25.7594 48.6521 25.9295 48.9685 26.2699C49.2849 26.6079 49.4431 27.0801 49.4431 27.6866V28.1576H47.0341C47.0772 28.3757 47.1719 28.5471 47.3181 28.6717C47.4644 28.7964 47.6537 28.8587 47.8862 28.8587C48.2698 28.8587 48.5694 28.7245 48.7851 28.456L49.3388 29.1104C49.1878 29.3189 48.9733 29.4855 48.6952 29.6102C48.4196 29.7324 48.1223 29.7935 47.8035 29.7935ZM47.6669 26.6942C47.3121 26.6942 47.1012 26.9291 47.0341 27.3989H48.2566V27.3054C48.2614 27.1113 48.2122 26.9615 48.1092 26.856C48.0061 26.7481 47.8587 26.6942 47.6669 26.6942ZM51.0791 25.8313L51.1186 26.2879C51.3943 25.9355 51.7646 25.7594 52.2296 25.7594C52.721 25.7594 53.053 25.9547 53.2256 26.3454C53.4893 25.9547 53.8704 25.7594 54.369 25.7594C55.1576 25.7594 55.5627 26.2364 55.5842 27.1904V29.7216H54.369V27.2659C54.369 27.0669 54.3354 26.9219 54.2683 26.8308C54.2012 26.7397 54.0789 26.6942 53.9015 26.6942C53.6618 26.6942 53.4833 26.8009 53.3658 27.0142L53.3694 27.0645V29.7216H52.1541V27.2731C52.1541 27.0693 52.1218 26.9219 52.057 26.8308C51.9923 26.7397 51.8689 26.6942 51.6867 26.6942C51.4542 26.6942 51.2768 26.8009 51.1546 27.0142V29.7216H49.9429V25.8313H51.0791ZM58.4679 29.7216C58.4247 29.6425 58.3864 29.5263 58.3528 29.3729C58.1299 29.6533 57.8183 29.7935 57.418 29.7935C57.0512 29.7935 56.7396 29.6833 56.4831 29.4627C56.2266 29.2398 56.0984 28.9606 56.0984 28.625C56.0984 28.2031 56.2542 27.8843 56.5658 27.6686C56.8774 27.4528 57.3305 27.345 57.9249 27.345H58.2989V27.14C58.2989 26.7829 58.1443 26.6043 57.835 26.6043C57.5474 26.6043 57.4036 26.7457 57.4036 27.0286H56.1919C56.1919 26.6522 56.3513 26.3466 56.6701 26.1117C56.9913 25.8768 57.4 25.7594 57.8962 25.7594C58.3924 25.7594 58.7843 25.8804 59.0719 26.1225C59.3595 26.3646 59.507 26.6966 59.5142 27.1185V28.8407C59.5189 29.1979 59.5741 29.4711 59.6795 29.6605V29.7216H58.4679ZM57.7092 28.9306C57.8602 28.9306 57.9849 28.8982 58.0831 28.8335C58.1838 28.7688 58.2557 28.6957 58.2989 28.6142V27.9922H57.9465C57.5246 27.9922 57.3137 28.1815 57.3137 28.5603C57.3137 28.6705 57.3508 28.7604 57.4252 28.8299C57.4995 28.897 57.5941 28.9306 57.7092 28.9306ZM61.4665 29.7216H60.2512V25.8313H61.4665V29.7216ZM60.1793 24.8281C60.1793 24.6555 60.2416 24.5141 60.3663 24.4038C60.4909 24.2936 60.6527 24.2384 60.8517 24.2384C61.0506 24.2384 61.2124 24.2936 61.3371 24.4038C61.4617 24.5141 61.5241 24.6555 61.5241 24.8281C61.5241 25.0007 61.4617 25.1421 61.3371 25.2524C61.2124 25.3626 61.0506 25.4178 60.8517 25.4178C60.6527 25.4178 60.4909 25.3626 60.3663 25.2524C60.2416 25.1421 60.1793 25.0007 60.1793 24.8281ZM63.4944 29.7216H62.2791V24.1989H63.4944V29.7216Z" fill="#CC4040"/>
<circle cx="31.6165" cy="18.0426" r="0.536932" fill="#CC4040"/>
<circle cx="33.304" cy="18.0426" r="0.536932" fill="#CC4040"/>
<path d="M35.5284 18.0426C35.5284 18.3391 35.288 18.5795 34.9915 18.5795C34.6949 18.5795 34.4545 18.3391 34.4545 18.0426C34.4545 17.7461 34.6949 17.5057 34.9915 17.5057C35.288 17.5057 35.5284 17.7461 35.5284 18.0426Z" fill="#CC4040"/>
<circle cx="23.6392" cy="12.2131" r="0.536932" fill="black"/>
<circle cx="25.3267" cy="12.2131" r="0.536932" fill="black"/>
<path d="M27.5511 12.2131C27.5511 12.5096 27.3107 12.75 27.0142 12.75C26.7177 12.75 26.4773 12.5096 26.4773 12.2131C26.4773 11.9165 26.7177 11.6761 27.0142 11.6761C27.3107 11.6761 27.5511 11.9165 27.5511 12.2131Z" fill="black"/>
<defs>
<filter id="filter0_d" x="4.38636" y="8.76135" width="27.3068" height="19.7898" filterUnits="userSpaceOnUse" color-interpolation-filters="sRGB">
<feFlood flood-opacity="0" result="BackgroundImageFix"/>
<feColorMatrix in="SourceAlpha" type="matrix" values="0 0 0 0 0 0 0 0 0 0 0 0 0 0 0 0 0 0 127 0"/>
<feOffset dy="0.613636"/>
<feGaussianBlur stdDeviation="0.306818"/>
<feColorMatrix type="matrix" values="0 0 0 0 0 0 0 0 0 0 0 0 0 0 0 0 0 0 0.25 0"/>
<feBlend mode="normal" in2="BackgroundImageFix" result="effect1_dropShadow"/>
<feBlend mode="normal" in="SourceGraphic" in2="effect1_dropShadow" result="shape"/>
</filter>
<filter id="filter1_d" x="10.8296" y="14.4375" width="29.1477" height="19.7898" filterUnits="userSpaceOnUse" color-interpolation-filters="sRGB">
<feFlood flood-opacity="0" result="BackgroundImageFix"/>
<feColorMatrix in="SourceAlpha" type="matrix" values="0 0 0 0 0 0 0 0 0 0 0 0 0 0 0 0 0 0 127 0"/>
<feOffset dy="0.613636"/>
<feGaussianBlur stdDeviation="0.306818"/>
<feColorMatrix type="matrix" values="0 0 0 0 0 0 0 0 0 0 0 0 0 0 0 0 0 0 0.25 0"/>
<feBlend mode="normal" in2="BackgroundImageFix" result="effect1_dropShadow"/>
<feBlend mode="normal" in="SourceGraphic" in2="effect1_dropShadow" result="shape"/>
</filter>
</defs>
</svg>
